<svg xmlns="http://www.w3.org/2000/svg" width="889.298" height="968.506" viewBox="0 0 889.298 968.506"><defs><style>.a{fill:none;stroke:#707070;}</style></defs><g transform="translate(0.511 0.5)"><path class="a" d="M415.212,1487.2c-99.613,0-227.152-97.436-212.572-211.758,5.211-109.926,166.68-146.383,57.04-263.391C-7.053,727.467,427.592,449.542,705.693,535.609c136.643,64.319,124.438,239.114,63.594,355.306-51.939,129.254-166.021,213.694-229.174,334.592-2.309,38.107,43.143,108.715,9.411,181.678C531.976,1445.136,466.579,1487.2,415.212,1487.2Z" transform="translate(-176.341 -519.697)"/><path class="a" d="M373.151,690.119c-3.5,173.981-11.7,308.865-10.291,484.164-.836,66.254-1.187,156.874-3.123,222.974-1.187,41.054-40.725,51.432-70.938,51.016-26.014-.352-68.519-13.04-66.738-51.016-5.827-235.177-8.861-474.049-12.776-707.138,18.075-49.718,38.855-99.766,64.429-146.955,4.86-13.017,16.69-33.556,29.356-15.393C317.847,553.235,367.236,666.944,373.151,690.119Z" transform="translate(515.135 -500.689)"/></g></svg>