<svg xmlns="http://www.w3.org/2000/svg" width="315.961" height="344.168" viewBox="0 0 315.961 344.168"><defs><style>.a{fill:none;stroke:rgba(112,112,112,0.15);}</style></defs><g transform="translate(0.518 0.638)"><path class="a" d="M261.032,862.727c-35.318,0-80.536-34.546-75.367-75.079,1.848-38.974,59.1-51.9,20.224-93.385-94.57-100.9,59.533-199.439,158.134-168.924,48.447,22.8,44.12,84.778,22.547,125.974-18.415,45.827-58.863,75.766-81.254,118.63-.819,13.51,15.3,38.545,3.337,64.413C302.431,847.812,279.245,862.727,261.032,862.727Z" transform="translate(-176.341 -519.697)"/><path class="a" d="M267.384,580.7c-1.24,61.685-4.148,109.508-3.649,171.661-.3,23.491-.421,55.62-1.107,79.056-.421,14.555-14.439,18.235-25.151,18.088-9.223-.125-24.294-4.623-23.662-18.088-2.066-83.383-3.142-168.074-4.53-250.716,6.409-17.628,13.776-35.372,22.843-52.1,1.723-4.615,5.917-11.9,10.408-5.458C247.776,532.173,265.286,572.488,267.384,580.7Z" transform="translate(47.558 -513.543)"/></g></svg>