<svg xmlns="http://www.w3.org/2000/svg" width="16" height="16" viewBox="0 0 16 16"><defs><style>.a{fill:#303030;}</style></defs><path class="a" d="M15.6,2h-8A2.4,2.4,0,0,0,5.2,4.4v.8H4.4A2.4,2.4,0,0,0,2,7.6v8A2.4,2.4,0,0,0,4.4,18h8a2.4,2.4,0,0,0,2.4-2.4v-.8h.8A2.4,2.4,0,0,0,18,12.4v-8A2.4,2.4,0,0,0,15.6,2ZM13.2,15.6a.8.8,0,0,1-.8.8h-8a.8.8,0,0,1-.8-.8V10h9.6Zm0-7.2H3.6V7.6a.8.8,0,0,1,.8-.8h8a.8.8,0,0,1,.8.8Zm3.2,4a.8.8,0,0,1-.8.8h-.8V7.6a2.4,2.4,0,0,0-.144-.8H16.4Zm0-7.2H6.8V4.4a.8.8,0,0,1,.8-.8h8a.8.8,0,0,1,.8.8Z" transform="translate(-2 -2)"/></svg>