<svg xmlns="http://www.w3.org/2000/svg" fill="white" width="40" height="40" viewBox="0 0 28 28"><path d="M23.476,6.844h0a1.68,1.68,0,1,0,1.68,1.68A1.68,1.68,0,0,0,23.476,6.844Zm6.44,3.388a10.626,10.626,0,0,0-.644-3.4,6.916,6.916,0,0,0-1.624-2.478,6.58,6.58,0,0,0-2.478-1.61,10.22,10.22,0,0,0-3.4-.658C20.284,2,19.808,2,16,2s-4.284,0-5.768.084a10.22,10.22,0,0,0-3.4.658,6.692,6.692,0,0,0-2.478,1.61A6.58,6.58,0,0,0,2.742,6.83a10.22,10.22,0,0,0-.658,3.4C2,11.716,2,12.192,2,16s0,4.284.084,5.768a10.22,10.22,0,0,0,.658,3.4,6.58,6.58,0,0,0,1.61,2.478,6.692,6.692,0,0,0,2.478,1.61,10.22,10.22,0,0,0,3.4.658C11.716,30,12.192,30,16,30s4.284,0,5.768-.084a10.22,10.22,0,0,0,3.4-.658,6.58,6.58,0,0,0,2.478-1.61,6.79,6.79,0,0,0,1.624-2.478,10.626,10.626,0,0,0,.644-3.4c0-1.484.084-1.96.084-5.768S30,11.716,29.916,10.232ZM27.4,21.6a7.854,7.854,0,0,1-.476,2.6,4.284,4.284,0,0,1-1.05,1.61,4.466,4.466,0,0,1-1.61,1.05,7.854,7.854,0,0,1-2.6.476c-1.4.07-1.918.084-5.6.084s-4.2,0-5.6-.084a8.022,8.022,0,0,1-2.716-.42A4.578,4.578,0,0,1,6.2,25.87a4.2,4.2,0,0,1-1.036-1.61A7.756,7.756,0,0,1,4.6,21.6c0-1.4-.084-1.918-.084-5.6s0-4.2.084-5.6a7.756,7.756,0,0,1,.49-2.66A4.2,4.2,0,0,1,6.2,6.2,4.4,4.4,0,0,1,7.74,5.08,8.022,8.022,0,0,1,10.4,4.6c1.4,0,1.918-.084,5.6-.084s4.2,0,5.6.084a7.854,7.854,0,0,1,2.6.476A4.284,4.284,0,0,1,25.87,6.2a4.284,4.284,0,0,1,1.05,1.54A7.854,7.854,0,0,1,27.4,10.4c.07,1.4.084,1.918.084,5.6S27.466,20.2,27.4,21.6ZM16,8.818a7.168,7.168,0,1,0,5.092,2.094A7.182,7.182,0,0,0,16,8.818Zm0,11.844A4.662,4.662,0,1,1,20.662,16,4.662,4.662,0,0,1,16,20.662Z" transform="translate(-2 -2)"/></svg>