<svg xmlns="http://www.w3.org/2000/svg" width="188.593" height="45" viewBox="0 0 188.593 45"><defs><style>.a{fill:#1a1311;}</style></defs><g transform="translate(-176.341 -519.696)"><path d="M187.2,564.7c-4.53,0-10.33-4.532-9.667-9.849.237-5.113,7.58-6.808,2.594-12.251-12.13-13.237,7.636-26.163,20.283-22.16,6.214,2.992,5.659,11.121,2.892,16.526-2.362,6.012-7.55,9.939-10.422,15.562-.1,1.772,1.962,5.057.428,8.45A7.811,7.811,0,0,1,187.2,564.7Z"/><path d="M216.737,528.494c-.159,8.1-.532,14.379-.468,22.541-.038,3.085-.054,7.3-.142,10.381-.054,1.911-1.852,2.394-3.226,2.375-1.183-.016-3.116-.607-3.035-2.375-.265-10.949-.4-22.07-.581-32.921a51.386,51.386,0,0,1,2.93-6.842c.221-.606.759-1.562,1.335-.717A68,68,0,0,1,216.737,528.494Z" transform="translate(0.781)"/><g transform="translate(237.796 530.987)"><path class="a" d="M240,548.392a28.055,28.055,0,0,1-4.153,2.221c-.157.627-.392.783-.679.783s-.6-.312-1.568-3.082q.94-.117,1.8-.235V533.528l-1.358.079v-1.542l2.43.1h5.485c.418-.548.889-1.071,1.463-1.724,2.221,1.881,2.43,2.272,2.43,2.481,0,.314-.157.549-.418.549H242.9a.982.982,0,0,1-.339.314v5.851c0,9.849.156,12.775.156,13.715,0,.679-.758,1.123-1.906,1.123-.524,0-.811-.235-.811-.653Zm-1.75-14.916a.967.967,0,0,1-.34.314V537H240v-3.527Zm1.75,8.542v-3.709h-2.09v3.709Zm-2.09,5.669c.705-.131,1.385-.262,2.09-.418v-3.944h-2.09Zm7.289-.758a5.385,5.385,0,0,1,.966,3.11c0,1.645-.862,2.611-1.959,2.611a1.055,1.055,0,0,1-1.2-1.07,1.926,1.926,0,0,1,.758-1.411,3.641,3.641,0,0,0,1.045-3.162Zm1.254-2.037c-.079.444-.706.836-1.829.836a.547.547,0,0,1-.627-.6c0-.392.078-1.463.078-5.408,0-1.018-.026-1.41-.078-2.325,1.15.262,1.855.471,2.325.627h2.926v-2.246H246.19l-2.612.131v-1.542l2.612.1h3.057v-.756a25.638,25.638,0,0,0-.131-2.77c3.448.262,3.866.5,3.866.914,0,.314-.209.523-1.018.758v1.854h2.063c.549-.705,1.019-1.279,1.7-2.01,2.586,2.115,2.795,2.481,2.795,2.768,0,.314-.131.549-.392.549h-6.165v2.246h2.951c.315-.6.524-.757.732-.757.313,0,.679.052,1.489.679.862.6.967.81.967,1.045,0,.287-.183.575-.706.862v.523c0,2.743.079,3.657.079,4.049,0,.575-.863.914-1.959.914-.367,0-.576-.157-.627-.444Zm1.254-1.306v-4.258h-1.2l-.026.026v4.232Zm1.881,8.072c0,.5.261.627,1.593.627,1.463,0,1.8-.1,2.272-.889a9.786,9.786,0,0,0,.889-2.037l.391.078v2.038c0,.523.863.627.863,1.384,0,.889-.627,1.62-4.676,1.62-3.37,0-4-.366-4-1.594,0-.809.1-1.985.1-4.336,0-.809-.026-1.28-.052-1.88,2.952.313,3.4.547,3.4.862s-.182.521-.783.783Zm0-6.557c2.768.365,3.813,1.568,3.813,2.742a1.339,1.339,0,0,1-1.3,1.36,1.068,1.068,0,0,1-1.124-.942,4.192,4.192,0,0,0-1.568-2.846Zm.705-5.773a.724.724,0,0,1-.34.34v3.918h1.332v-4.258Zm4.6,0h-1.02a.717.717,0,0,1-.339.34v3.918h1.359Zm-.209,7.262c2.951.993,4,2.534,4,3.814a1.42,1.42,0,0,1-1.463,1.541c-.627,0-1.1-.34-1.228-1.228a6.431,6.431,0,0,0-1.567-3.866Z" transform="translate(-233.599 -530.446)"/><path class="a" d="M274.507,531.778a4.4,4.4,0,0,1,3.422,1.567c.731.732.94,1.2.94,1.646a1.177,1.177,0,0,1-.627.94,10.323,10.323,0,0,0-1.227.706c-1.2.888-1.7,1.306-2.848,2.273-1.515,1.254-2.272,1.959-2.926,2.534a1.513,1.513,0,0,0-.627,1.1c0,.418.366.731,1.229,1.411,1.488,1.175,2.9,2.325,4.153,3.448a15.747,15.747,0,0,1,3.056,3.344,3.119,3.119,0,0,1,.523,1.594,1.648,1.648,0,0,1-1.594,1.775c-.653,0-.94-.313-1.332-1.019a27.82,27.82,0,0,0-5.042-6.661c-.757-.731-1.462-1.332-2.247-2.037a2.03,2.03,0,0,1-.809-1.646,2.644,2.644,0,0,1,.888-1.907c1.933-2.038,3.631-3.919,5.121-5.8a3.551,3.551,0,0,0,.914-1.594c0-.34-.5-.888-1.123-1.306Z" transform="translate(-233.599 -530.446)"/><path class="a" d="M301.493,542.094a3.772,3.772,0,0,1,2.081.96,1.769,1.769,0,0,1,.72,1.241c0,.5-.24.64-.82.72a17.486,17.486,0,0,0-2.441.5c-4.44,1.34-6.06,2.741-6.06,4.361,0,1.08.92,1.78,2.74,1.78a19.139,19.139,0,0,0,3.32-.2,3.634,3.634,0,0,0,.841-.181,2.808,2.808,0,0,1,.82-.14c1.38,0,2.04.56,2.04,1.26,0,.6-.379.841-1.1.981a26.4,26.4,0,0,1-4.921.179c-3.12-.12-4.921-1.4-4.921-3.54,0-1.541,1.12-3.26,3.581-4.521a11.18,11.18,0,0,1-.221-1.42c-.059-.54-.12-1.521-.3-4.281-.06-.8-.241-.981-.56-1.1a2.051,2.051,0,0,0-.761-.14l-.08-.219a2.263,2.263,0,0,1,1.341-.621,2.69,2.69,0,0,1,1.8.72c.54.42.64.76.64,1.021a1.467,1.467,0,0,1-.2.679,2.708,2.708,0,0,0-.26,1.1c-.02.36-.04.82-.04,1.34,0,.761.04,1.621.081,2.221.979-.42,1.839-.781,2.459-1.121.42-.219.541-.339.541-.459a.824.824,0,0,0-.121-.38,3.3,3.3,0,0,0-.319-.481Z" transform="translate(-233.599 -530.446)"/><path class="a" d="M318.522,545.963c-.469.235-.914.47-1.383.653-.158.758-.367.967-.627.967-.418,0-.575-.314-1.568-3.083,1.28-.261,2.455-.522,3.578-.81v-5.46h-1.41l-1.985.131v-1.567l1.985.13h1.41v-2.167c0-1.594-.051-2.8-.129-3.841,3.395.313,3.709.5,3.709.836s-.236.522-.966.81v4.362h.13c.418-.6.757-1.018,1.306-1.671,1.828,1.959,1.908,2.141,1.908,2.455,0,.34-.158.522-.418.522h-2.926c.025,1.568.025,3.135.025,4.729.862-.261,1.725-.549,2.612-.836l.158.366q-1.412,1.1-2.743,1.959c.051,5.3.157,6.53.157,7.628,0,1.358-.993,2.481-2.926,2.481-.471,0-.549-.051-.706-.522a3.128,3.128,0,0,0-2.3-2.09l.026-.392a15.922,15.922,0,0,0,2.038.131c.888,0,1.044-.1,1.044-1.018Zm8.648-10.606v-1.2c0-1.463-.026-1.959-.079-2.951,3.318.287,3.579.469,3.579.757s-.209.5-.888.757v2.639h2.586v-1.149c0-1.463-.026-1.959-.078-2.952,3.317.287,3.578.47,3.578.757s-.209.5-.888.758v2.586h.654c.5-.627,1.018-1.254,1.619-1.907,2.4,2.194,2.508,2.377,2.508,2.665,0,.313-.131.548-.392.548h-4.362c0,1.646.052,2.429.052,2.769,0,.575-.914.967-2.09.967-.47,0-.679-.183-.679-.575s.052-1.123.078-3.161h-2.56c0,1.724.052,2.56.052,2.9,0,.574-.914.966-2.089.966-.471,0-.68-.183-.68-.574s.053-1.176.079-3.292h-.68l-2.455.131v-1.568l2.429.131Zm-.053,18.182c0,.627-.757,1.018-1.959,1.018-.5,0-.731-.182-.731-.6,0-.81.078-2.77.078-9.979,0-1.15,0-1.96-.078-3.135,1.41.392,2.22.653,2.69.836h8.2c.445-.862.654-.993.941-.993.365,0,.627.105,1.594.784s1.07.888,1.07,1.2c0,.339-.209.548-.941.888v.757c0,6.583.1,8.177.1,8.777s-.758,1.019-2.037,1.019c-.5,0-.732-.183-.732-.6v-.862h-8.2Zm2.8-7.237v-3.317h-2.691l-.1.131V546.3Zm-2.8,5.042h2.8v-3.735h-2.8Zm8.2-8.359h-2.429a.575.575,0,0,1-.418.313v3h2.847Zm0,4.624h-2.847v3.735h2.847Z" transform="translate(-233.599 -530.446)"/><path class="a" d="M355.669,531.778a4.4,4.4,0,0,1,3.422,1.567c.731.732.94,1.2.94,1.646a1.177,1.177,0,0,1-.627.94,10.323,10.323,0,0,0-1.227.706c-1.2.888-1.7,1.306-2.848,2.273-1.515,1.254-2.272,1.959-2.926,2.534a1.513,1.513,0,0,0-.627,1.1c0,.418.367.731,1.229,1.411,1.488,1.175,2.9,2.325,4.153,3.448a15.747,15.747,0,0,1,3.056,3.344,3.119,3.119,0,0,1,.523,1.594,1.648,1.648,0,0,1-1.593,1.775c-.654,0-.941-.313-1.332-1.019a27.874,27.874,0,0,0-5.042-6.661c-.758-.731-1.463-1.332-2.248-2.037a2.03,2.03,0,0,1-.809-1.646,2.644,2.644,0,0,1,.888-1.907c1.933-2.038,3.631-3.919,5.121-5.8a3.551,3.551,0,0,0,.914-1.594c0-.34-.5-.888-1.123-1.306Z" transform="translate(-233.599 -530.446)"/></g></g></svg>