<svg xmlns="http://www.w3.org/2000/svg" width="273.524" height="44.158" viewBox="0 0 273.524 44.158"><path d="M187.2,563.7c-4.53,0-10.33-4.431-9.667-9.63.237-5,7.58-6.657,2.594-11.978-12.13-12.942,7.636-25.581,20.283-21.667,6.214,2.925,5.659,10.874,2.892,16.158-2.362,5.878-7.55,9.718-10.422,15.216-.1,1.733,1.962,4.944.428,8.262C192.514,561.782,189.54,563.7,187.2,563.7Z" transform="translate(-176.341 -519.696)"/><path d="M216.737,528.311c-.159,7.912-.532,14.046-.468,22.018-.038,3.013-.054,7.134-.142,10.14-.054,1.867-1.852,2.339-3.226,2.32-1.183-.016-3.116-.593-3.035-2.32-.265-10.7-.4-21.558-.581-32.158a49.579,49.579,0,0,1,2.93-6.683c.221-.592.759-1.526,1.335-.7A65.59,65.59,0,0,1,216.737,528.311Z" transform="translate(-176.341 -519.696)"/><path d="M7.488-1.3c1.9.65,2.626,1.3,2.912,2.626.1.494.182.546.65.546,2.262,0,3.926-1.248,3.926-2.834,0-1.638-.234-5.616-.234-14.066v-4.5c.858-.338,1.2-.546,1.2-.962,0-.39-.624-.65-4.368-.962.13,1.56.182,3.432.182,6.578v12.22c0,1.04-.182,1.17-1.2,1.17A23.918,23.918,0,0,1,7.514-1.69Zm8.84-13.286A17.436,17.436,0,0,1,21.736-7.2c.364.91.832,1.56,1.664,1.56a1.689,1.689,0,0,0,1.638-1.846,4.364,4.364,0,0,0-1.118-2.678,16.275,16.275,0,0,0-7.384-4.758ZM.884-4a20.958,20.958,0,0,0,7.7-8.84c.858-.078,1.2-.416,1.2-.676,0-.494-.65-.728-3.8-1.768A31.536,31.536,0,0,1,.65-4.316Zm46.7-12.818C45.162-7.9,40.976-2.158,34.5,1.586l.182.338c.676-.234,1.326-.468,1.976-.728A26.1,26.1,0,0,0,40.248-.676a22.092,22.092,0,0,0,6.5-6.4,25.945,25.945,0,0,0,3.406-7.358c.312,6.968,2.184,11.492,5.512,15.5.208.26.338.39.468.39s.26-.13.494-.416A4.317,4.317,0,0,1,59.306-.442l.13-.364A21.511,21.511,0,0,1,50.7-15.912c.728-.286,1.014-.546,1.014-.884s-.13-.572-1.352-1.482c-.884-.676-1.17-.754-1.638-.754-.312,0-.624.286-1.274,1.482H44.3c.338-.676.65-1.352.936-2.054.936-.208,1.248-.416,1.248-.754,0-.364-.442-.624-3.9-1.43A33.01,33.01,0,0,1,35.906-8.736l.26.286a24.411,24.411,0,0,0,7.748-8.372Zm44.8,8.268c.26,0,.416-.13.416-.286,0-.286-.208-.572-2.834-2.574-.546.624-1.144,1.378-1.69,2.132H84.682v-1.95c.832-.286,1.04-.546,1.04-.832,0-.312-.234-.494-3.822-.832.078,1.014.078,2.08.078,3.614H77.584l-2.548-.13v.988l2.548-.13h3.51A27.757,27.757,0,0,1,74.152,0l.208.338A19.8,19.8,0,0,0,81.952-5.3c-.026,3.848-.1,5.98-.1,6.708,0,.39.234.572.728.572,1.274,0,2.236-.39,2.236-1.04,0-.52-.13-2.756-.13-8.97A14.238,14.238,0,0,0,89.908-.39a1.081,1.081,0,0,0,.546.26c.182,0,.312-.13.546-.468a4.367,4.367,0,0,1,2.106-1.56l.1-.364a16.433,16.433,0,0,1-8.164-6.032ZM68.536-8.32a40.433,40.433,0,0,0,2.574-3.406v1.482c0,6.578-.182,10.686-.182,11.726,0,.416.286.676.832.676,1.248,0,2.054-.468,2.054-1.17,0-.962-.1-4.94-.1-11.154v-2.47c.65-.312.858-.442.858-.754,0-.234-.546-.468-1.95-.806a25.59,25.59,0,0,0,2.314-5.486c.858-.182,1.17-.364,1.17-.728,0-.39-.624-.65-3.848-1.456A62.013,62.013,0,0,1,68.2-8.528Zm11.492-5.33h7.228v.6c0,.39.234.6.7.6,1.3,0,2.158-.416,2.158-1.04,0-.6-.1-2.158-.1-4.472v-.806c.754-.312.962-.572.962-.936,0-.312-.156-.572-1.118-1.274-.962-.728-1.274-.858-1.638-.858-.338,0-.546.13-1.144,1.43h-6.5c-.286-.286-1.066-.6-3.38-1.274.052.962.078,2.184.078,3.406,0,3.016-.1,4.654-.1,5.512,0,.416.234.6.754.6,1.274,0,2.106-.39,2.106-1.04Zm0-.728V-19.24l.39-.442h6.838v5.3Zm45.89,15.86c6.24-.416,13.65-2.652,13.65-8.45,0-2.938-2.522-5.434-5.876-5.8.052-.182-.026-.494-.468-.884a3.221,3.221,0,0,0-2.548-.884l-.026.286a1.349,1.349,0,0,1,.624.806,1.155,1.155,0,0,1,.026.52,25.863,25.863,0,0,0-4.186.884c.078-1.04.26-2.054.416-2.964a36.838,36.838,0,0,0,5.72-1.456c.962-.364,1.222-.65,1.222-1.274s-.494-.936-1.456-.936a3.118,3.118,0,0,0-1.456.416A17.889,17.889,0,0,1,127.92-17a7,7,0,0,1,.26-.988,1.853,1.853,0,0,1,.416-.572.963.963,0,0,0,.312-.624.8.8,0,0,0-.286-.572,4.746,4.746,0,0,0-2.912-1.4,4.182,4.182,0,0,0-1.56.442v.338a3.218,3.218,0,0,1,1.43.546c.286.234.234.442.234.91,0,.572-.078,1.4-.182,2.366a18.961,18.961,0,0,1-2.392.26,3.384,3.384,0,0,1-3.094-1.274l-.286.208c.806,2.392,1.95,2.834,3.9,2.834a10.2,10.2,0,0,0,1.69-.13c-.1,1.014-.208,2.314-.286,3.432-4.29,2.028-6.474,5.018-6.474,7.254a2.178,2.178,0,0,0,2.236,2.366c1.222,0,2.782-.624,5.018-2.314a5.354,5.354,0,0,0,.676,1.17,1.151,1.151,0,0,0,.858.494,1.194,1.194,0,0,0,1.092-1.2,2.253,2.253,0,0,0-.156-.936,9.846,9.846,0,0,1-.52-1.118,34.472,34.472,0,0,0,5.486-6.24,3.784,3.784,0,0,1,3.432,3.978c0,4.394-4.836,7.2-11,8.84Zm5.018-13.234a17.341,17.341,0,0,1-3.614,4.628,19.788,19.788,0,0,1-.208-3.718A19.112,19.112,0,0,1,130.936-11.752ZM125.45-5.668a7.167,7.167,0,0,1-3.744,1.794c-.728,0-1.066-.338-1.066-1.118,0-1.352.936-2.99,4.446-4.992A24.97,24.97,0,0,0,125.45-5.668Zm35.516,7.7c3.328-.884,5.226-2.028,6.708-4a10.233,10.233,0,0,0,1.664-6.292c0-1.768-.078-3.926-.1-5.07,1.69-.078,2.834-.026,3.38-.026,1.118,0,1.352-.468,1.352-.832,0-.91-.832-1.482-2.106-1.482a1.953,1.953,0,0,0-.676.13,2.249,2.249,0,0,1-.6.156c-.416.052-.754.078-1.326.13,0-.78.052-1.456.1-2.054a1.879,1.879,0,0,1,.26-.7,1.091,1.091,0,0,0,.234-.754,1.165,1.165,0,0,0-.65-.91,5.021,5.021,0,0,0-2.756-.988,3.8,3.8,0,0,0-1.69.546l.052.416a2.2,2.2,0,0,1,1.586.546,2.171,2.171,0,0,1,.364,1.378c.052,1.04.078,1.9.078,2.808-1.326.182-2.626.364-3.978.494-1.04.1-1.716.078-2.158.1-1.2.052-1.9.468-2.626,1.976a51.142,51.142,0,0,0-2.34,5.538l-.156.052a13.942,13.942,0,0,1,.052-2.314,21.193,21.193,0,0,1,1.118-5.1,6.629,6.629,0,0,1,.338-.754,3.049,3.049,0,0,0,.234-1.3,3.408,3.408,0,0,0-.442-1.456,9.066,9.066,0,0,0-2.08-2.548l-.286.208a5.455,5.455,0,0,1,.416,2.106,27.075,27.075,0,0,1-.468,3.25,43.213,43.213,0,0,0-.728,6.942,12.208,12.208,0,0,0,1.17,5.85c.442.78.91,1.04,1.456,1.04.6,0,.858-.468.858-1.04a7.084,7.084,0,0,0-.182-1.4,5.731,5.731,0,0,1-.13-1.3,13.231,13.231,0,0,1,.26-1.924,27.342,27.342,0,0,1,1.508-5.278c.39-.936.988-1.352,1.456-1.352a4.552,4.552,0,0,1,1.274.208,5.627,5.627,0,0,0,1.248.156c.416,0,1.014-.026,1.482-.078.91-.078,1.768-.182,2.73-.286.078,5.876-.182,8.086-1.222,10.166a10.339,10.339,0,0,1-4.862,4.654Zm38.818-15.262c.962.416,1.17.806,1.17,1.508a13.708,13.708,0,0,1-.494,3.016,32.977,32.977,0,0,0-5.772-.65c.91-1.872,1.872-4.212,2.834-6.5A2.807,2.807,0,0,1,198.328-17a.776.776,0,0,0,.338-.65,1.169,1.169,0,0,0-.338-.754,4.671,4.671,0,0,0-2.392-1.456,1.415,1.415,0,0,0-.988.364,8.288,8.288,0,0,1-1.664.65,5.927,5.927,0,0,1-1.664.39A.766.766,0,0,1,191-18.8a2.487,2.487,0,0,1-.494-.884l-.416.026a4.14,4.14,0,0,0-.13,1.118c0,.962,1.04,2.444,2.106,2.444a.991.991,0,0,0,.676-.286,2.7,2.7,0,0,1,.7-.546,5.769,5.769,0,0,1,1.846-.78c.208,0,.286.13.286.338a3.913,3.913,0,0,1-.234,1.092,64.485,64.485,0,0,1-2.73,6.994c-4.42.234-6.89,2.314-6.89,4.524a2.116,2.116,0,0,0,2.366,2.288c1.9-.026,3.562-1.352,5.85-5.33a25.025,25.025,0,0,1,6.006,1.04,15.47,15.47,0,0,1-5.408,8.19l.234.312c3.484-1.17,5.642-3.536,7.28-7.826a20.1,20.1,0,0,1,3.926,2.21,2.392,2.392,0,0,0,1.56.6,1.144,1.144,0,0,0,.988-1.17,1.742,1.742,0,0,0-.494-1.456,3.578,3.578,0,0,0-.858-.624c-.234-.13-.6-.286-1.144-.52a22.153,22.153,0,0,0-3.25-1.092c.234-.832.364-1.43.52-2a2.166,2.166,0,0,1,.442-.832.909.909,0,0,0,.208-.572,1.482,1.482,0,0,0-.572-.962,3.608,3.608,0,0,0-2.366-1.248,5.262,5.262,0,0,0-1.118.1ZM191.88-7.8c-1.664,2.99-3.042,3.64-3.848,3.64-.7,0-.988-.26-.988-1.04C187.044-6.448,188.5-7.774,191.88-7.8Z" transform="translate(65 42)"/><path d="M7.518-10.542c.616.154.854.42.854.56a.939.939,0,0,1-.182.448,24.84,24.84,0,0,1-2.3,2.814A25.747,25.747,0,0,1,1.386-2.744l.126.21A17.508,17.508,0,0,0,7.1-6.244c.028.308.042.6.042,1.148,0,.7,0,1.834-.028,2.562a7.4,7.4,0,0,1-.07.9,3.425,3.425,0,0,0-.1.588c0,1.106.5,1.582.91,1.582.462,0,.714-.21.714-.924s-.042-1.6-.056-2.744C8.5-4.074,8.5-4.984,8.5-5.7c0-.224.014-.448.014-.546,0-.252-.126-.518-.588-.77.574-.574.952-.994,1.512-1.61a3.808,3.808,0,0,1,.6-.532.565.565,0,0,0,.28-.476c0-.476-.588-.91-1.4-1.176a1.857,1.857,0,0,0-.63-.1,3.5,3.5,0,0,0-.756.1ZM21.392.588C25.186-.5,27.3-2.492,29.064-6.02a.97.97,0,0,1,.49-.49c.294-.126.406-.252.406-.434s-.266-.56-.728-.91-.574-.462-.826-.462a1.036,1.036,0,0,0-.448.224c-.224.154-.378.21-1.106.28-1.036.1-2.954.252-4.158.322-.322.014-.6.042-1.064.042a1.584,1.584,0,0,1-1.092-.462l-.154.056a1.291,1.291,0,0,0,.1.448,2.017,2.017,0,0,0,.574.826c.28.28.49.434.742.434a.668.668,0,0,0,.336-.112,1.913,1.913,0,0,1,.658-.21c1.456-.224,3.206-.42,4.914-.546A12.8,12.8,0,0,1,21.294.336Zm.322-10.948a1.459,1.459,0,0,0,.28.7c.252.364.644.728.854.728a1.807,1.807,0,0,0,.336-.042,2.574,2.574,0,0,1,.5-.07c1.4-.112,2.758-.238,4.438-.322.56-.028.658-.238.658-.56,0-.462-.63-.756-1.316-.756a.669.669,0,0,0-.252.056,1.876,1.876,0,0,1-.546.182,21.6,21.6,0,0,1-3.444.364,2.372,2.372,0,0,1-1.386-.364Zm17.332,1.3a2.195,2.195,0,0,0,.028.406,1.911,1.911,0,0,0,.448.77c.392.448.672.6.91.6a1.069,1.069,0,0,0,.378-.084,5.446,5.446,0,0,1,1.036-.294c.826-.14,1.862-.308,2.94-.434.084-.014.182-.014.182.028a.378.378,0,0,1-.07.154c-2.212,3.4-4.228,5.4-7.518,6.944l.084.238a12.7,12.7,0,0,0,6.594-3.766,10.117,10.117,0,0,1,2.884,2.94A1.058,1.058,0,0,0,47.8-.98a.823.823,0,0,0,.812-.84,1.77,1.77,0,0,0-.714-1.316,9.981,9.981,0,0,0-3.472-1.778c.8-.868,1.316-1.61,1.932-2.408a1.4,1.4,0,0,1,.7-.532c.238-.112.322-.224.322-.42s-.126-.406-.686-.84a1.561,1.561,0,0,0-.826-.392.556.556,0,0,0-.336.154,1.438,1.438,0,0,1-.91.406c-1.176.14-2.688.294-4.074.35a1.36,1.36,0,0,1-.8-.154,2.453,2.453,0,0,1-.476-.364ZM59.01-10.584a1.269,1.269,0,0,1,.8.448c.1.112.14.266.154.644.042,1.61.028,3.052.014,4.872-.014,2.6-.112,3.486-.112,3.766a1.437,1.437,0,0,0,.2.9.74.74,0,0,0,.672.42c.462,0,.658-.392.658-.826,0-1.582-.056-3.878-.056-5.614a5.361,5.361,0,0,1,2.324,1.736,1.185,1.185,0,0,0,.84.49.765.765,0,0,0,.8-.854c0-.574-.35-1.092-1.316-1.428a10.2,10.2,0,0,0-2.646-.518c0-.98,0-1.568.014-2.086a1.333,1.333,0,0,1,.2-.826A.714.714,0,0,0,61.7-9.9c0-.224-.2-.448-.6-.7A2.49,2.49,0,0,0,59.976-11a4.223,4.223,0,0,0-.966.154ZM85.26-6.846a22.057,22.057,0,0,1-7.364,4.1.433.433,0,0,1-.112.028c-.1,0-.126-.084-.126-.336,0-1.638.014-2.982.07-4.186a1.194,1.194,0,0,1,.2-.756.7.7,0,0,0,.182-.462c0-.182-.14-.35-.434-.56a2.359,2.359,0,0,0-1.246-.476,3.99,3.99,0,0,0-1.036.14V-9.1a1.52,1.52,0,0,1,.812.462,1.686,1.686,0,0,1,.112.728v4.4a4.945,4.945,0,0,1-.028.882,1.568,1.568,0,0,0-.084.322c0,.2.154.462.5.868.378.448.672.63.8.63a.432.432,0,0,0,.322-.14,2.532,2.532,0,0,1,.616-.364,17.111,17.111,0,0,0,7-5.362Zm6.916.56a3.094,3.094,0,0,0,.518,1.26,1.635,1.635,0,0,0,1.05.812,1.059,1.059,0,0,0,.49-.168,2.006,2.006,0,0,1,.616-.14c2.254-.14,4.76-.224,6.258-.21.532,0,.938-.014,1.638-.014.84,0,1.162-.2,1.162-.658,0-.322-.28-.5-.616-.658a3.527,3.527,0,0,0-1.036-.21,14.827,14.827,0,0,1-1.722.182c-1.988.1-4.438.238-6.636.238a1.886,1.886,0,0,1-1.5-.532Zm22.358.658a7.7,7.7,0,0,1,1.82.924A14.174,14.174,0,0,1,111.23.168l.1.238a11.512,11.512,0,0,0,6.02-4.284,5.4,5.4,0,0,1,.994.98.87.87,0,0,0,.7.336c.392,0,.658-.336.658-.8,0-.518-.476-1.05-1.554-1.624.434-.728.952-1.638,1.372-2.45a1.215,1.215,0,0,1,.462-.462c.252-.14.434-.322.434-.5,0-.224-.168-.434-.658-.8a1.6,1.6,0,0,0-.784-.392c-.1,0-.224.1-.406.238a.992.992,0,0,1-.644.294,10.949,10.949,0,0,1-1.778.1c.084-.168.126-.266.168-.35s.1-.112.182-.2a.4.4,0,0,0,.14-.35c0-.392-.924-1.036-1.512-1.036a3.585,3.585,0,0,0-1.064.168l-.014.224c.6.084.84.238.84.462a2.509,2.509,0,0,1-.182.826A17.957,17.957,0,0,1,111.5-4l.126.21a12.365,12.365,0,0,0,4.3-4.76.9.9,0,0,0,.658.308c.252,0,1.064-.07,1.75-.1a23.586,23.586,0,0,1-1.414,2.856,8.98,8.98,0,0,0-2.324-.378Zm14.042-.658a3.094,3.094,0,0,0,.518,1.26,1.635,1.635,0,0,0,1.05.812,1.059,1.059,0,0,0,.49-.168,2.006,2.006,0,0,1,.616-.14c2.254-.14,4.76-.224,6.258-.21.532,0,.938-.014,1.638-.014.84,0,1.162-.2,1.162-.658,0-.322-.28-.5-.616-.658a3.527,3.527,0,0,0-1.036-.21,14.827,14.827,0,0,1-1.722.182c-1.988.1-4.438.238-6.636.238a1.886,1.886,0,0,1-1.5-.532Z" transform="translate(65 12)"/></svg>