<svg xmlns="http://www.w3.org/2000/svg" width="275" height="45" viewBox="0 0 275 45"><defs><style>.a{font-size:26px;}.a,.b{font-family:DNPShueiMinPr6N-B, DNPShueiMinPr6N;letter-spacing:0.3em;}.b{font-size:14px;}</style></defs><path d="M187.2,563.7c-4.53,0-10.33-4.431-9.667-9.63.237-5,7.58-6.657,2.594-11.978-12.13-12.942,7.636-25.581,20.283-21.667,6.214,2.925,5.659,10.874,2.892,16.158-2.362,5.878-7.55,9.718-10.422,15.216-.1,1.733,1.962,4.944.428,8.262C192.514,561.782,189.54,563.7,187.2,563.7Z" transform="translate(-176.341 -519.696)"/><path d="M216.737,528.311c-.159,7.912-.532,14.046-.468,22.018-.038,3.013-.054,7.134-.142,10.14-.054,1.867-1.852,2.339-3.226,2.32-1.183-.016-3.116-.593-3.035-2.32-.265-10.7-.4-21.558-.581-32.158a49.579,49.579,0,0,1,2.93-6.683c.221-.592.759-1.526,1.335-.7A65.59,65.59,0,0,1,216.737,528.311Z" transform="translate(-176.341 -519.696)"/><text class="a" transform="translate(65 42)"><tspan x="0" y="0">小久保 あけみ</tspan></text><text class="b" transform="translate(65 12)"><tspan x="0" y="0">イラストレーター</tspan></text></svg>