<svg xmlns="http://www.w3.org/2000/svg" width="859" height="153.455" viewBox="0 0 859 153.455"><defs><style>.a{fill:#fff;stroke:#707070;}.b{fill:#faf000;}.c{fill:#707070;}</style></defs><g transform="translate(0.5 0.5)"><path class="a" d="M157.693,116H58A58,58,0,0,1,58,0H800a58,58,0,0,1,0,116H182.479a69,69,0,0,0,1.8,35.858C167.072,141.841,160.261,127.5,157.693,116Z" transform="translate(0 0)"/><circle class="b" cx="34" cy="34" r="34" transform="translate(647 17)"/><path class="c" d="M20.2-2.72h1.768V-27.268H32.3v-1.564H20.2ZM53.142,1.632c0,.544.374.85,1.054.85,1.5,0,2.482-.578,2.482-1.462,0-1.224-.2-5.1-.2-18.054v-7.718a.925.925,0,0,0,.544-.782h3.2c.34,0,.544-.17.544-.408s-.272-.68-3.162-2.822c-.748.85-1.36,1.564-1.9,2.278h-7.14l-3.162-.17v1.292l1.768-.1V-5.95q-1.122.153-2.346.306c1.258,3.672,1.666,4.08,2.04,4.08s.68-.2.884-1.054a33.835,33.835,0,0,0,5.406-2.924ZM50.422-12.58h2.72V-7c-.918.2-1.8.374-2.72.544Zm2.72-12.954v5.406h-2.72v-4.624a.925.925,0,0,0,.544-.782Zm-2.72,12v-5.644h2.72v5.644Zm11.152,3.026H72.522v.2c0,.51.272.748.816.748,1.428,0,2.55-.442,2.55-1.224,0-.51-.1-1.734-.1-5.338v-.68c.68-.374.918-.748.918-1.122,0-.306-.136-.578-1.258-1.394a3.037,3.037,0,0,0-1.938-.85c-.34,0-.646.272-1.122,1.394H68.714v-3.74h8.024c.34,0,.51-.17.51-.408,0-.34-.272-.748-3.638-3.2-.884.952-1.5,1.734-2.21,2.652H68.714v-2.856c1.054-.306,1.326-.612,1.326-1.02,0-.544-.544-.85-5.032-1.19a34.135,34.135,0,0,1,.17,3.638v1.428H61.2l-3.4-.17v1.292l3.4-.17h3.978v3.74H62.186c-.306-.306-1.224-.612-3.842-1.258.068,1.19.1,1.734.1,3.06,0,5.2-.1,6.63-.1,7.14a.711.711,0,0,0,.816.782c1.6,0,2.414-.612,2.414-1.258Zm0-.952v-5.984l.34-.374h1.258v6.358Zm10.948,0H70.754v-5.576a.925.925,0,0,0,.544-.782h1.224ZM67.83-17.816v6.358H66.1v-5.576a.925.925,0,0,0,.544-.782ZM59.4-7.344A4.8,4.8,0,0,1,58.038-3.2a2.566,2.566,0,0,0-.986,1.87A1.38,1.38,0,0,0,58.616.1c1.428,0,2.55-1.292,2.55-3.468a7.1,7.1,0,0,0-1.258-4.08Zm5.984-2.108c1.054.782,1.564,1.666,2.04,3.74a1.391,1.391,0,0,0,1.462,1.258,1.751,1.751,0,0,0,1.7-1.8c0-1.53-1.36-3.128-4.964-3.6Zm6.528,1.9C73-6.324,73.542-5.2,73.95-2.482c.17,1.19.782,1.632,1.6,1.632a1.859,1.859,0,0,0,1.9-2.04c0-1.7-1.36-3.706-5.2-5.032Zm-6.29,1.9c.782-.34,1.02-.612,1.02-1.02s-.578-.748-4.42-1.156c.034.782.068,1.428.068,2.482,0,3.094-.136,4.658-.136,5.712,0,1.666.816,2.142,5.2,2.142,5.27,0,6.086-.986,6.086-2.176,0-.986-1.122-1.122-1.122-1.8V-4.148l-.51-.1a13.032,13.032,0,0,1-1.156,2.686C70.04-.544,69.6-.408,67.694-.408c-1.734,0-2.074-.17-2.074-.816Zm39.032-21.114c.816.544,1.462,1.258,1.462,1.7a4.6,4.6,0,0,1-1.19,2.074c-1.938,2.448-4.148,4.9-6.664,7.548A3.441,3.441,0,0,0,97.1-12.954a2.639,2.639,0,0,0,1.054,2.142c1.02.918,1.938,1.7,2.924,2.652A36.219,36.219,0,0,1,107.644.51c.51.918.884,1.326,1.734,1.326a2.145,2.145,0,0,0,2.074-2.312,4.067,4.067,0,0,0-.68-2.074A20.535,20.535,0,0,0,106.794-6.9c-1.632-1.462-3.468-2.958-5.406-4.488-1.122-.884-1.6-1.292-1.6-1.836a1.971,1.971,0,0,1,.816-1.428c.85-.748,1.836-1.666,3.808-3.3,1.5-1.258,2.142-1.8,3.706-2.958a13.336,13.336,0,0,1,1.6-.918,1.536,1.536,0,0,0,.816-1.224c0-.578-.272-1.19-1.224-2.142a5.727,5.727,0,0,0-4.454-2.04Zm48.484,8.024a5.592,5.592,0,0,1,.544.816,1.4,1.4,0,0,1,.2.646c0,.2-.2.408-.918.782-1.054.578-2.516,1.19-4.182,1.9-.068-1.02-.136-2.482-.136-3.774,0-.884.034-1.666.068-2.278a4.589,4.589,0,0,1,.442-1.87,2.507,2.507,0,0,0,.34-1.156c0-.442-.17-1.02-1.088-1.734a4.573,4.573,0,0,0-3.06-1.224,3.85,3.85,0,0,0-2.278,1.054l.136.374a3.471,3.471,0,0,1,1.292.238c.544.2.85.51.952,1.87.306,4.692.408,6.358.51,7.276a19.317,19.317,0,0,0,.374,2.414c-4.182,2.142-6.086,5.066-6.086,7.684,0,3.638,3.06,5.814,8.364,6.018A44.847,44.847,0,0,0,156.978,0c1.224-.238,1.87-.646,1.87-1.666,0-1.19-1.122-2.142-3.468-2.142a4.772,4.772,0,0,0-1.394.238,6.255,6.255,0,0,1-1.428.306,32.3,32.3,0,0,1-5.644.34c-3.094,0-4.658-1.19-4.658-3.026,0-2.754,2.754-5.134,10.3-7.412a29.925,29.925,0,0,1,4.148-.85c.986-.136,1.394-.374,1.394-1.224a3.011,3.011,0,0,0-1.224-2.108,6.413,6.413,0,0,0-3.536-1.632ZM182.308-2.652c0,1.19-.2,1.326-1.36,1.326A20.87,20.87,0,0,1,178.3-1.5l-.034.51c1.7.612,2.482,1.258,2.992,2.72.2.612.306.68.918.68,2.516,0,3.808-1.462,3.808-3.23,0-1.428-.136-3.026-.2-9.928q1.734-1.122,3.57-2.55l-.2-.476c-1.156.374-2.278.748-3.4,1.088,0-2.176,0-4.352-.034-6.528h3.808c.34,0,.544-.136.544-.374,0-.34-.1-.544-2.482-2.754a27.56,27.56,0,0,0-1.7,2.176h-.17v-6.052c.952-.374,1.258-.612,1.258-1.054s-.408-.68-4.828-1.088c.1,1.36.17,2.924.17,5v3.2h-1.836l-2.584-.17v1.292l2.584-.17h1.836v7.48c-1.462.374-2.992.714-4.658,1.054,1.292,3.6,1.5,4.012,2.04,4.012.34,0,.612-.272.816-1.258.612-.238,1.19-.544,1.8-.85ZM192.644-22.2l-3.162-.17v1.292l3.2-.17h.884c-.034,3.06-.1,4.114-.1,4.658,0,.51.272.748.884.748,1.53,0,2.72-.51,2.72-1.258,0-.476-.068-1.632-.1-4.148h3.366c-.034,2.924-.1,3.944-.1,4.488,0,.51.272.748.884.748,1.53,0,2.72-.51,2.72-1.258,0-.476-.068-1.6-.1-3.978h5.712c.34,0,.51-.17.51-.408,0-.34-.136-.544-3.264-3.026-.782.85-1.462,1.666-2.108,2.482h-.85v-3.74c.884-.34,1.156-.612,1.156-.986s-.34-.612-4.658-.986c.068,1.292.1,1.938.1,3.842v1.87h-3.366V-26.01c.884-.34,1.156-.612,1.156-.986s-.34-.612-4.658-.986c.068,1.292.1,1.938.1,3.842V-22.2Zm.85,21.76H204.17v1.5c0,.544.306.782.952.782,1.666,0,2.652-.544,2.652-1.326s-.136-2.856-.136-11.424V-11.9c.952-.442,1.224-.714,1.224-1.156,0-.408-.136-.68-1.394-1.564s-1.6-1.02-2.074-1.02c-.408,0-.68.2-1.394,1.666h-9.826c-.34-.306-1.36-.646-4.182-1.462.1,1.53.1,2.584.1,4.08,0,9.384-.1,11.934-.1,12.988,0,.544.306.782.952.782,1.564,0,2.55-.51,2.55-1.326Zm0-7.514v-4.522l.476-.544h3.162v5.066Zm0,.952h3.638v5.61h-3.638Zm10.676,5.61h-3.706V-7h3.706Zm0-6.562h-3.706V-12.24c.408-.1.578-.306.646-.782h3.06Zm33.082-18.8c.816.544,1.462,1.258,1.462,1.7a4.6,4.6,0,0,1-1.19,2.074c-1.938,2.448-4.148,4.9-6.664,7.548a3.441,3.441,0,0,0-1.156,2.482,2.639,2.639,0,0,0,1.054,2.142c1.02.918,1.938,1.7,2.924,2.652A36.22,36.22,0,0,1,240.244.51c.51.918.884,1.326,1.734,1.326a2.146,2.146,0,0,0,2.074-2.312,4.067,4.067,0,0,0-.68-2.074A20.534,20.534,0,0,0,239.394-6.9c-1.632-1.462-3.468-2.958-5.406-4.488-1.122-.884-1.6-1.292-1.6-1.836a1.971,1.971,0,0,1,.816-1.428c.85-.748,1.836-1.666,3.808-3.3,1.5-1.258,2.142-1.8,3.706-2.958a13.338,13.338,0,0,1,1.6-.918,1.536,1.536,0,0,0,.816-1.224c0-.578-.272-1.19-1.224-2.142a5.727,5.727,0,0,0-4.454-2.04ZM279-23.086h-1.768V1.462H266.9V3.026H279ZM325.04.034C335.682-1.428,340.2-5.916,340.2-12.274c0-5.644-4.59-10.778-13.056-10.778-8.33,0-14.518,5.61-14.518,12.036a9.5,9.5,0,0,0,1.734,5.78,4.456,4.456,0,0,0,3.2,2.142c1.258,0,2.142-.85,3.264-2.346a57.945,57.945,0,0,0,5.61-10.1,10.514,10.514,0,0,0,1.088-2.992c0-.646-.578-1.7-2.176-2.89a16.469,16.469,0,0,1,2.312-.068c4.76.2,8.84,3.3,8.84,8.534,0,4.726-3.162,9.35-11.594,12.444Zm-1.224-21.25a2.9,2.9,0,0,1,.51,1.768,8.991,8.991,0,0,1-.578,2.38,44.465,44.465,0,0,1-4.42,8.806,2.2,2.2,0,0,1-1.8,1.224,2.63,2.63,0,0,1-1.632-1.156,5.792,5.792,0,0,1-1.122-3.468C314.772-16.15,317.968-19.788,323.816-21.216ZM355.334-6.97a10.971,10.971,0,0,1,5.882,6.46c.612,1.972,1.258,2.856,2.38,2.856a2.4,2.4,0,0,0,2.55-2.686c0-1.5-.884-2.958-2.652-4.318a15.853,15.853,0,0,0-7.99-2.788Zm45.9-15.742a4.4,4.4,0,0,1,1.122,2.346,25.134,25.134,0,0,1,.136,3.23c-.068,8.092.986,10.846,3.332,13.634A4.737,4.737,0,0,0,409.19-1.5a1.411,1.411,0,0,0,1.36-1.6,5.4,5.4,0,0,0-.238-1.224,2.862,2.862,0,0,1-.1-.612,5.709,5.709,0,0,1,.544-2.108c2.72-6.8,5.61-9.316,7.99-9.316,2.55,0,5.474,3.094,5.61,5.576a.9.9,0,0,1-.68,1.02,33.529,33.529,0,0,1-3.332.884V-8.4a14.153,14.153,0,0,1,3.162.476A3.217,3.217,0,0,1,425.2-6.7a1.739,1.739,0,0,0,1.462.918c1.224,0,1.9-.85,1.9-2.856a9.542,9.542,0,0,0-9.384-9.01c-3.774,0-6.12,2.72-11.05,9.928-.306.408-.544.612-.816.612a.985.985,0,0,1-.68-.374c-.782-.782-1.36-2.754-1.36-5.032a19.008,19.008,0,0,1,.442-4.59,6.464,6.464,0,0,0,.238-1.5,2.7,2.7,0,0,0-.51-1.394,8.075,8.075,0,0,0-2.176-2.244,4.546,4.546,0,0,0-1.836-.85Zm44.2,0a4.4,4.4,0,0,1,1.122,2.346,25.134,25.134,0,0,1,.136,3.23c-.068,8.092.986,10.846,3.332,13.634A4.737,4.737,0,0,0,453.39-1.5a1.411,1.411,0,0,0,1.36-1.6,5.4,5.4,0,0,0-.238-1.224,2.862,2.862,0,0,1-.1-.612,5.709,5.709,0,0,1,.544-2.108c2.72-6.8,5.61-9.316,7.99-9.316,2.55,0,5.474,3.094,5.61,5.576a.9.9,0,0,1-.68,1.02,33.529,33.529,0,0,1-3.332.884V-8.4a14.153,14.153,0,0,1,3.162.476A3.217,3.217,0,0,1,469.4-6.7a1.739,1.739,0,0,0,1.462.918c1.224,0,1.9-.85,1.9-2.856a9.542,9.542,0,0,0-9.384-9.01c-3.774,0-6.12,2.72-11.05,9.928-.306.408-.544.612-.816.612a.985.985,0,0,1-.68-.374c-.782-.782-1.36-2.754-1.36-5.032a19.008,19.008,0,0,1,.442-4.59,6.464,6.464,0,0,0,.238-1.5,2.7,2.7,0,0,0-.51-1.394,8.075,8.075,0,0,0-2.176-2.244,4.546,4.546,0,0,0-1.836-.85Zm61.3,3.978a5.593,5.593,0,0,1,.544.816,1.4,1.4,0,0,1,.2.646c0,.2-.2.408-.918.782-1.054.578-2.516,1.19-4.182,1.9-.068-1.02-.136-2.482-.136-3.774,0-.884.034-1.666.068-2.278a4.589,4.589,0,0,1,.442-1.87,2.506,2.506,0,0,0,.34-1.156c0-.442-.17-1.02-1.088-1.734a4.573,4.573,0,0,0-3.06-1.224,3.85,3.85,0,0,0-2.278,1.054l.136.374a3.471,3.471,0,0,1,1.292.238c.544.2.85.51.952,1.87.306,4.692.408,6.358.51,7.276a19.317,19.317,0,0,0,.374,2.414c-4.182,2.142-6.086,5.066-6.086,7.684,0,3.638,3.06,5.814,8.364,6.018A44.847,44.847,0,0,0,510.578,0c1.224-.238,1.87-.646,1.87-1.666,0-1.19-1.122-2.142-3.468-2.142a4.772,4.772,0,0,0-1.394.238,6.255,6.255,0,0,1-1.428.306,32.3,32.3,0,0,1-5.644.34c-3.094,0-4.658-1.19-4.658-3.026,0-2.754,2.754-5.134,10.3-7.412a29.925,29.925,0,0,1,4.148-.85c.986-.136,1.394-.374,1.394-1.224a3.011,3.011,0,0,0-1.224-2.108,6.413,6.413,0,0,0-3.536-1.632ZM544.1-18.8c-4.454,3.264-7.14,6.868-7.14,10.37,0,5.134,4.352,7.514,11.9,7.514a32.276,32.276,0,0,0,7.684-.646c1.088-.306,1.394-.782,1.394-1.734,0-1.224-1.5-2.108-3.5-2.108a2.417,2.417,0,0,0-1.122.272,4.223,4.223,0,0,1-1.326.306,32.293,32.293,0,0,1-5.3.374c-5.338,0-7.582-1.768-7.582-4.556,0-3.672,2.992-7.174,7.208-8.976a16.357,16.357,0,0,1,3.23-.85c1.02-.17,2.516-.306,4.182-.476,1.292-.136,1.836-.714,1.836-1.462a2.456,2.456,0,0,0-2.618-2.278,6.619,6.619,0,0,0-2.142.442,23.34,23.34,0,0,1-6.7.884c-2.72,0-4.114-.17-5.44-1.8l-.408.34c.986,3.06,2.992,4.08,5.848,4.25Zm60.7-18.1h-3.1L585.8-12.5v2.15h13.7V-8.3c0,3.45-.65,4.1-3.75,4.15L595-4.1v2.05h13.8V-4.1l-.6-.05c-3.15-.1-3.4-.4-3.4-4.15v-2.05h5.95v-2.4H604.8Zm-5.3,7.05v17.1H588.3Zm37.208,12.782a4.179,4.179,0,0,0,.17,1.462c.612,1.6,2.482,3.468,3.978,3.468a1.814,1.814,0,0,0,1.428-.612,9.888,9.888,0,0,1,1.8-1.53c4.658-3.536,8.4-5.134,11.8-5.134,3.774,0,6.086,2.142,6.086,5.78,0,2.822-1.5,5-4.454,7.072a34.974,34.974,0,0,1-11.764,4.794l.034.612a40.057,40.057,0,0,0,12.852-2.618c3.3-1.394,7.174-3.91,7.174-9.112,0-4.964-4.114-8.364-9.894-8.364-3.978,0-6.936.85-12.75,3.842-2.312,1.19-3.162,1.394-3.74,1.394a3.428,3.428,0,0,1-2.21-1.258Zm45.458,9.18a4.9,4.9,0,0,0-4.9,4.9,4.919,4.919,0,0,0,4.9,4.9,4.919,4.919,0,0,0,4.9-4.9A4.876,4.876,0,0,0,682.166-7.888Zm0,1.53a3.4,3.4,0,0,1,3.366,3.366A3.442,3.442,0,0,1,682.166.374,3.442,3.442,0,0,1,678.8-2.992,3.418,3.418,0,0,1,682.166-6.358Z" transform="translate(80.5 70.349)"/></g></svg>