<svg xmlns="http://www.w3.org/2000/svg" width="337.001" height="162.939" viewBox="0 0 337.001 162.939"><defs><style>.a{fill:#fff;stroke:#303030;}.b{fill:#faf000;}.c{fill:#303030;}</style></defs><g transform="translate(0.5 0.5)"><path class="a" d="M158.883,139.537H69.769A69.768,69.768,0,1,1,69.769,0H266.232a69.768,69.768,0,1,1,0,139.537H173.954a41.954,41.954,0,0,0,1.093,21.8A32.928,32.928,0,0,1,158.883,139.537Z"/><circle class="b" cx="21" cy="21" r="21" transform="translate(178.501 71)"/><path class="c" d="M-173.6-9.927h1.28V-27.7h7.483v-1.132H-173.6Zm23.853,3.151c0,.394.271.615.763.615,1.083,0,1.8-.418,1.8-1.058,0-.886-.148-3.692-.148-13.071v-5.588a.67.67,0,0,0,.394-.566h2.314c.246,0,.394-.123.394-.3s-.2-.492-2.289-2.043c-.542.615-.985,1.132-1.378,1.649h-5.169l-2.289-.123v.935l1.28-.074v14.13q-.812.111-1.7.222c.911,2.659,1.206,2.954,1.477,2.954s.492-.148.64-.763a24.5,24.5,0,0,0,3.914-2.117Zm-1.969-10.29h1.969v4.037c-.665.148-1.3.271-1.969.394Zm1.969-9.379v3.914h-1.969v-3.348a.67.67,0,0,0,.394-.566Zm-1.969,8.69v-4.086h1.969v4.086Zm8.074,2.191h7.926v.148c0,.369.2.542.591.542,1.034,0,1.846-.32,1.846-.886,0-.369-.074-1.255-.074-3.865v-.492c.492-.271.665-.542.665-.812,0-.222-.1-.418-.911-1.009a2.2,2.2,0,0,0-1.4-.615c-.246,0-.468.2-.812,1.009h-2.659v-2.708h5.809c.246,0,.369-.123.369-.3,0-.246-.2-.542-2.634-2.314-.64.689-1.083,1.255-1.6,1.92h-1.945V-27.01c.763-.222.96-.443.96-.738,0-.394-.394-.615-3.643-.862a24.71,24.71,0,0,1,.123,2.634v1.034h-2.88l-2.462-.123v.935l2.462-.123h2.88v2.708H-143.2c-.222-.222-.886-.443-2.782-.911.049.862.074,1.255.074,2.215,0,3.766-.074,4.8-.074,5.169a.515.515,0,0,0,.591.566c1.157,0,1.748-.443,1.748-.911Zm0-.689v-4.332l.246-.271h.911v4.6Zm7.926,0H-137V-20.29a.67.67,0,0,0,.394-.566h.886Zm-3.4-4.6v4.6h-1.255V-20.29a.67.67,0,0,0,.394-.566Zm-6.1,7.582a3.478,3.478,0,0,1-.985,3,1.858,1.858,0,0,0-.714,1.354,1,1,0,0,0,1.132,1.034c1.034,0,1.846-.935,1.846-2.511a5.144,5.144,0,0,0-.911-2.954Zm4.332-1.526a3.961,3.961,0,0,1,1.477,2.708,1.007,1.007,0,0,0,1.058.911,1.268,1.268,0,0,0,1.231-1.3c0-1.108-.985-2.265-3.594-2.609Zm4.726,1.379a6.073,6.073,0,0,1,1.477,3.668c.123.862.566,1.182,1.157,1.182a1.346,1.346,0,0,0,1.379-1.477c0-1.231-.985-2.683-3.766-3.643Zm-4.554,1.379c.566-.246.738-.443.738-.738s-.418-.542-3.2-.837c.025.566.049,1.034.049,1.8,0,2.24-.1,3.372-.1,4.136,0,1.206.591,1.551,3.766,1.551,3.816,0,4.406-.714,4.406-1.575,0-.714-.812-.812-.812-1.3v-1.945l-.369-.074a9.436,9.436,0,0,1-.837,1.945c-.443.738-.763.837-2.142.837-1.255,0-1.5-.123-1.5-.591Zm28.259-15.287c.591.394,1.058.911,1.058,1.231a3.33,3.33,0,0,1-.862,1.5c-1.4,1.772-3,3.545-4.825,5.465a2.492,2.492,0,0,0-.837,1.8,1.911,1.911,0,0,0,.763,1.551c.738.665,1.4,1.231,2.117,1.92a26.223,26.223,0,0,1,4.751,6.277c.369.665.64.96,1.255.96a1.553,1.553,0,0,0,1.5-1.674,2.944,2.944,0,0,0-.492-1.5,14.867,14.867,0,0,0-2.88-3.151c-1.182-1.058-2.511-2.142-3.914-3.249-.812-.64-1.157-.935-1.157-1.329a1.427,1.427,0,0,1,.591-1.034c.615-.542,1.329-1.206,2.757-2.388,1.083-.911,1.551-1.3,2.683-2.142a9.656,9.656,0,0,1,1.157-.665,1.112,1.112,0,0,0,.591-.886c0-.418-.2-.862-.886-1.551a4.146,4.146,0,0,0-3.225-1.477Zm35.1,5.809a4.049,4.049,0,0,1,.394.591,1.015,1.015,0,0,1,.148.468c0,.148-.148.3-.665.566-.763.418-1.822.862-3.028,1.379-.049-.738-.1-1.8-.1-2.732,0-.64.025-1.206.049-1.649a3.322,3.322,0,0,1,.32-1.354,1.815,1.815,0,0,0,.246-.837c0-.32-.123-.738-.788-1.255a3.311,3.311,0,0,0-2.215-.886,2.787,2.787,0,0,0-1.649.763l.1.271a2.513,2.513,0,0,1,.935.172c.394.148.615.369.689,1.354.222,3.4.3,4.6.369,5.268a13.986,13.986,0,0,0,.271,1.748c-3.028,1.551-4.406,3.668-4.406,5.563,0,2.634,2.215,4.209,6.056,4.357a32.47,32.47,0,0,0,6.056-.222c.886-.172,1.354-.468,1.354-1.206,0-.862-.812-1.551-2.511-1.551a3.455,3.455,0,0,0-1.009.172,4.529,4.529,0,0,1-1.034.222,23.384,23.384,0,0,1-4.086.246c-2.24,0-3.372-.862-3.372-2.191,0-1.994,1.994-3.717,7.459-5.366a21.666,21.666,0,0,1,3-.615c.714-.1,1.009-.271,1.009-.886a2.18,2.18,0,0,0-.886-1.526,4.643,4.643,0,0,0-2.56-1.182ZM-56.234-9.878c0,.862-.148.96-.985.96a15.11,15.11,0,0,1-1.92-.123l-.025.369A2.947,2.947,0,0,1-57-6.7c.148.443.222.492.665.492,1.822,0,2.757-1.058,2.757-2.339,0-1.034-.1-2.191-.148-7.188q1.255-.812,2.585-1.846l-.148-.345c-.837.271-1.649.542-2.462.788,0-1.575,0-3.151-.025-4.726h2.757c.246,0,.394-.1.394-.271,0-.246-.074-.394-1.8-1.994a19.955,19.955,0,0,0-1.231,1.575h-.123v-4.382c.689-.271.911-.443.911-.763s-.3-.492-3.5-.788c.074.985.123,2.117.123,3.619v2.314h-1.329l-1.871-.123v.935l1.871-.123h1.329v5.416c-1.058.271-2.166.517-3.372.763.935,2.609,1.083,2.9,1.477,2.9.246,0,.443-.2.591-.911.443-.172.862-.394,1.3-.615Zm7.483-14.154-2.289-.123v.935l2.314-.123h.64c-.025,2.215-.074,2.979-.074,3.372,0,.369.2.542.64.542,1.108,0,1.969-.369,1.969-.911,0-.345-.049-1.182-.074-3h2.437c-.025,2.117-.074,2.855-.074,3.249,0,.369.2.542.64.542,1.108,0,1.969-.369,1.969-.911,0-.345-.049-1.157-.074-2.88h4.136c.246,0,.369-.123.369-.3,0-.246-.1-.394-2.363-2.191-.566.615-1.058,1.206-1.526,1.8h-.615V-26.74c.64-.246.837-.443.837-.714s-.246-.443-3.372-.714c.049.935.074,1.4.074,2.782v1.354h-2.437v-2.757c.64-.246.837-.443.837-.714s-.246-.443-3.372-.714c.049.935.074,1.4.074,2.782v1.4Zm.615,15.754h7.729v1.083c0,.394.222.566.689.566,1.206,0,1.92-.394,1.92-.96s-.1-2.068-.1-8.271v-.714c.689-.32.886-.517.886-.837,0-.3-.1-.492-1.009-1.132s-1.157-.738-1.5-.738c-.3,0-.492.148-1.009,1.206h-7.114a11.559,11.559,0,0,0-3.028-1.058c.074,1.108.074,1.871.074,2.954,0,6.794-.074,8.64-.074,9.4,0,.394.222.566.689.566,1.132,0,1.846-.369,1.846-.96Zm0-5.44v-3.274l.345-.394H-45.5v3.668Zm0,.689H-45.5v4.062h-2.634Zm7.729,4.062h-2.683v-4.062h2.683Zm0-4.751h-2.683v-3.1c.3-.074.418-.222.468-.566h2.215ZM-16.454-27.33c.591.394,1.058.911,1.058,1.231a3.33,3.33,0,0,1-.862,1.5c-1.4,1.772-3,3.545-4.825,5.465a2.492,2.492,0,0,0-.837,1.8,1.911,1.911,0,0,0,.763,1.551c.738.665,1.4,1.231,2.117,1.92a26.223,26.223,0,0,1,4.751,6.277c.369.665.64.96,1.255.96a1.553,1.553,0,0,0,1.5-1.674,2.944,2.944,0,0,0-.492-1.5,14.867,14.867,0,0,0-2.88-3.151c-1.182-1.058-2.511-2.142-3.914-3.249-.812-.64-1.157-.935-1.157-1.329a1.427,1.427,0,0,1,.591-1.034c.615-.542,1.329-1.206,2.757-2.388,1.083-.911,1.551-1.3,2.683-2.142a9.656,9.656,0,0,1,1.157-.665,1.112,1.112,0,0,0,.591-.886c0-.418-.2-.862-.886-1.551a4.146,4.146,0,0,0-3.225-1.477Zm30.229,2.659h-1.28V-6.9H5.011v1.132h8.763ZM47.1-7.933c7.7-1.058,10.979-4.308,10.979-8.911,0-4.086-3.323-7.8-9.453-7.8-6.031,0-10.511,4.062-10.511,8.714a6.875,6.875,0,0,0,1.255,4.185A3.226,3.226,0,0,0,41.689-10.2c.911,0,1.551-.615,2.363-1.7a41.953,41.953,0,0,0,4.062-7.311,7.612,7.612,0,0,0,.788-2.166c0-.468-.418-1.231-1.575-2.092A11.924,11.924,0,0,1,49-23.515c3.446.148,6.4,2.388,6.4,6.179,0,3.422-2.289,6.769-8.394,9.01Zm-.886-15.385a2.1,2.1,0,0,1,.369,1.28,6.51,6.51,0,0,1-.418,1.723,32.193,32.193,0,0,1-3.2,6.376,1.593,1.593,0,0,1-1.3.886,1.9,1.9,0,0,1-1.182-.837A4.194,4.194,0,0,1,39.67-16.4C39.67-19.65,41.984-22.284,46.218-23.318ZM69.038-13A7.943,7.943,0,0,1,73.3-8.327c.443,1.428.911,2.068,1.723,2.068A1.737,1.737,0,0,0,76.865-8.2a4.092,4.092,0,0,0-1.92-3.126,11.478,11.478,0,0,0-5.785-2.019ZM-161.268,24.831a3.185,3.185,0,0,1,.812,1.7,18.192,18.192,0,0,1,.1,2.339c-.049,5.859.714,7.853,2.412,9.871a3.43,3.43,0,0,0,2.437,1.452,1.022,1.022,0,0,0,.985-1.157,3.909,3.909,0,0,0-.172-.886,2.071,2.071,0,0,1-.074-.443,4.134,4.134,0,0,1,.394-1.526c1.969-4.923,4.062-6.745,5.785-6.745,1.846,0,3.963,2.24,4.062,4.037a.653.653,0,0,1-.492.738,24.274,24.274,0,0,1-2.412.64v.345a10.246,10.246,0,0,1,2.289.345,2.329,2.329,0,0,1,1.231.886,1.259,1.259,0,0,0,1.058.665c.886,0,1.379-.615,1.379-2.068a6.908,6.908,0,0,0-6.794-6.523c-2.732,0-4.431,1.969-8,7.188-.222.3-.394.443-.591.443a.713.713,0,0,1-.492-.271,5.709,5.709,0,0,1-.985-3.643,13.762,13.762,0,0,1,.32-3.323,4.681,4.681,0,0,0,.172-1.083,1.957,1.957,0,0,0-.369-1.009,5.846,5.846,0,0,0-1.575-1.625,3.291,3.291,0,0,0-1.329-.615Zm32,0a3.185,3.185,0,0,1,.812,1.7,18.2,18.2,0,0,1,.1,2.339c-.049,5.859.714,7.853,2.412,9.871a3.43,3.43,0,0,0,2.437,1.452,1.022,1.022,0,0,0,.985-1.157,3.908,3.908,0,0,0-.172-.886,2.072,2.072,0,0,1-.074-.443,4.134,4.134,0,0,1,.394-1.526c1.969-4.923,4.062-6.745,5.785-6.745,1.846,0,3.963,2.24,4.062,4.037a.653.653,0,0,1-.492.738,24.274,24.274,0,0,1-2.412.64v.345a10.247,10.247,0,0,1,2.289.345,2.329,2.329,0,0,1,1.231.886,1.259,1.259,0,0,0,1.058.665c.886,0,1.379-.615,1.379-2.068A6.908,6.908,0,0,0-116.27,28.5c-2.732,0-4.431,1.969-8,7.188-.222.3-.394.443-.591.443a.713.713,0,0,1-.492-.271,5.709,5.709,0,0,1-.985-3.643,13.762,13.762,0,0,1,.32-3.323,4.681,4.681,0,0,0,.172-1.083,1.957,1.957,0,0,0-.369-1.009,5.846,5.846,0,0,0-1.575-1.625,3.291,3.291,0,0,0-1.329-.615Zm44.383,2.88a4.049,4.049,0,0,1,.394.591,1.015,1.015,0,0,1,.148.468c0,.148-.148.3-.665.566-.763.418-1.822.862-3.028,1.379-.049-.738-.1-1.8-.1-2.732,0-.64.025-1.206.049-1.649a3.322,3.322,0,0,1,.32-1.354,1.815,1.815,0,0,0,.246-.837c0-.32-.123-.738-.788-1.255A3.311,3.311,0,0,0-90.522,22a2.787,2.787,0,0,0-1.649.763l.1.271a2.513,2.513,0,0,1,.935.172c.394.148.615.369.689,1.354.222,3.4.3,4.6.369,5.268a13.986,13.986,0,0,0,.271,1.748c-3.028,1.551-4.406,3.668-4.406,5.563,0,2.634,2.215,4.209,6.056,4.357a32.47,32.47,0,0,0,6.056-.222c.886-.172,1.354-.468,1.354-1.206,0-.862-.812-1.551-2.511-1.551a3.455,3.455,0,0,0-1.009.172,4.529,4.529,0,0,1-1.034.222,23.385,23.385,0,0,1-4.086.246c-2.24,0-3.372-.862-3.372-2.191,0-1.994,1.994-3.717,7.459-5.366a21.666,21.666,0,0,1,3-.615c.714-.1,1.009-.271,1.009-.886a2.18,2.18,0,0,0-.886-1.526,4.643,4.643,0,0,0-2.56-1.182Zm27.053-.049C-61.056,30.025-63,32.635-63,35.17c0,3.717,3.151,5.44,8.616,5.44a23.367,23.367,0,0,0,5.563-.468c.788-.222,1.009-.566,1.009-1.255,0-.886-1.083-1.526-2.535-1.526a1.75,1.75,0,0,0-.812.2,3.057,3.057,0,0,1-.96.222,23.38,23.38,0,0,1-3.84.271c-3.865,0-5.489-1.28-5.489-3.3,0-2.659,2.166-5.194,5.219-6.5a11.842,11.842,0,0,1,2.339-.615c.738-.123,1.822-.222,3.028-.345.935-.1,1.329-.517,1.329-1.058a1.778,1.778,0,0,0-1.9-1.649,4.792,4.792,0,0,0-1.551.32,16.9,16.9,0,0,1-4.849.64c-1.969,0-2.979-.123-3.939-1.3l-.3.246c.714,2.215,2.166,2.954,4.234,3.077Zm43.946-13.1H-16.13L-27.642,32.225v1.557h9.919v1.484c0,2.5-.471,2.968-2.715,3l-.543.036v1.484h9.991V38.306l-.434-.036c-2.281-.072-2.462-.29-2.462-3V33.781h4.308V32.044h-4.308Zm-3.837,5.1v12.38h-8.109Zm30.559,9.254a3.026,3.026,0,0,0,.123,1.058c.443,1.157,1.8,2.511,2.88,2.511a1.313,1.313,0,0,0,1.034-.443,7.161,7.161,0,0,1,1.3-1.108c3.372-2.56,6.08-3.717,8.542-3.717,2.732,0,4.406,1.551,4.406,4.185,0,2.043-1.083,3.619-3.225,5.12a25.322,25.322,0,0,1-8.517,3.471l.025.443a29,29,0,0,0,9.3-1.9c2.388-1.009,5.194-2.831,5.194-6.6,0-3.594-2.979-6.056-7.163-6.056-2.88,0-5.022.615-9.231,2.782a6.53,6.53,0,0,1-2.708,1.009,2.482,2.482,0,0,1-1.6-.911Zm35.373,6.646a3.545,3.545,0,1,0,3.545,3.545A3.546,3.546,0,0,0,48.209,35.564Zm0,1.108a2.459,2.459,0,0,1,2.437,2.437,2.437,2.437,0,1,1-2.437-2.437Z" transform="translate(215.604 63.85)"/></g></svg>