<svg xmlns="http://www.w3.org/2000/svg" width="947.889" height="1040.262" viewBox="0 0 947.889 1040.262"><defs><style>.a{fill:none;stroke:rgba(48,48,48,0.6);}</style></defs><path class="a" d="M856.891,1039.247c-27.8-.383-73.134-13.907-71.26-54.438-6.187-250.973-9.452-505.885-13.6-754.635C791.285,177.1,830.567,85.746,849.263,57.115c6.82-10.46,15.756-9.827,22.818-.192,12.691,17.263,68.512,148.509,74.792,173.25-3.731,185.659-9.4,684.79-11.442,755.343-1.282,42.921-44.545,53.739-76.574,53.739C858.19,1039.256,857.532,1039.256,856.891,1039.247Zm-829.9-228.18C39.656,680.53,202.047,655.147,87.849,529.981-206.937,206.889,314.1-82.458,563.837,21.539c147.026,61.234,132.786,255.17,67.846,379.171C576.263,538.633,374.057,734.893,385.666,767.28c87.216,243.02-90.98,265.472-131.836,269.76a110.807,110.807,0,0,1-11.542.583C153.4,1037.632,14.531,939.606,26.989,811.067Z" transform="translate(0.516 0.507)"/></svg>