<svg xmlns="http://www.w3.org/2000/svg" width="948.017" height="1040.402" viewBox="0 0 948.017 1040.402"><path d="M857.006,1039.387c-27.8-.383-73.144-13.909-71.27-54.446-6.188-251.007-9.453-505.954-13.6-754.737,19.256-53.08,58.544-144.447,77.242-173.082,6.821-10.461,15.758-9.828,22.821-.192C884.891,74.2,940.72,205.46,947,230.2c-3.732,185.684-9.4,684.883-11.444,755.445-1.282,42.927-44.551,53.746-76.584,53.746C858.306,1039.4,857.648,1039.4,857.006,1039.387ZM26.993,811.177C39.661,680.621,202.074,655.235,87.86,530.052-206.965,206.917,314.147-82.469,563.913,21.541c147.046,61.242,132.8,255.2,67.855,379.222C576.34,538.706,374.107,734.992,385.718,767.383c87.228,243.053-90.993,265.508-131.854,269.8a110.8,110.8,0,0,1-11.544.583C153.425,1037.771,14.533,939.732,26.993,811.177Z" transform="translate(0.516 0.507)" fill="none" stroke="rgba(48,48,48,0.6)" stroke-width="1"/></svg>